<svg id="Layer_1" data-name="Layer 1" xmlns="http://www.w3.org/2000/svg" viewBox="0 0 739.28 458.94"><title>MLGA-Network-Stacked</title><path d="M548.79,264.24c-.17,1.22-.34,2.44-.63,4.49l5.33-4.15c-1,4.49-1.32,7.72-2.39,10.69-3.06,8.5-5.77,17.14-11.29,24.6-1.86,2.52-2.31,6.08-3.36,9.18a64.5,64.5,0,0,0-2,6.61c-1.08,4.86-3.2,9.32-4.15,14.39-1.68,9-6.59,17.4-10.22,26-1.82,4.33-3.78,8.6-5.71,12.88-.75,1.65-1.57,3.27-2.43,4.86-4.21,7.82-8.11,15.84-12.8,23.36-3.81,6.09-8.67,11.52-12.9,17.35s-8.13,11.84-12.36,17.63a84.47,84.47,0,0,1-7.6,8.87c-.72.74-2.4.54-4.86,1-4.53-24.24.67-48.8,1.43-73.95-3.23,6.67-6.39,13-9.33,19.35-3.85,8.34-7.62,16.72-11.21,25.17-2.06,4.83-3.38,10-5.64,14.71-1.75,3.65-4.44,6.85-6.81,10.38-1.34-5.16-3.28-9.68-3.54-14.29-.53-9.13-.18-18.32-.09-27.48.05-4.93.35-9.86.5-14.8.6-20,1.09-40,1.86-59.91.17-4.44-.07-9.91,2.33-13,3.28-4.23.53-7.86,2.09-12.37-3.3.24-5.79.44-8.27.6-10.22.65-20.47,1.05-30.65,2.09-2.43.25-5.63,2.05-6.79,4.09A191.14,191.14,0,0,0,376.94,324c-3.94,9.61-6.95,19.6-11,29.17-4.52,10.7-10.15,20.93-14.53,31.69-3.31,8.12-5.42,16.73-8,25.14-.87,2.84-1,6.08-2.52,8.51-5.81,9.43-12,18.6-18.11,27.88l-2-.65c.55-5.4.95-10.83,1.69-16.21.86-6.25,1.7-12.53,3.13-18.65,2.11-9,4.63-17.91,7.16-26.81,3.87-13.64,8-27.22,11.82-40.86,2-7.16,3.83-14.4,6.22-23.42.64,2.17.94,3.21,1.17,4,3.24-7.68,6.16-14.58,9.24-21.89l-53,9.81c.43-1.63.74-2.78,1-3.78-4.83.82-9.83,1-14.34,2.6-6.76,2.4-13.19,5.75-19.69,8.84a5.76,5.76,0,0,0-2.74,2.64c-2.25,5.46-4.28,11-6.54,16.94,10.25-1.31,18.81-8.59,30.11-7.84,10.29.69,20.74-3.81,31.44-1a28.76,28.76,0,0,0-13.27,8.09c-3.72,3.8-10.23,5-15.62,7-9.65,3.66-19.37,7.14-29.09,10.64-3.16,1.14-6.52,1.82-9.55,3.22-7.45,3.45-7.73,11.12-9.24,17.62-2.75,11.83-4.66,23.86-6.89,35.81a10.79,10.79,0,0,0,.22,2.3c3.87-2.68,7.28-5.09,10.74-7.44,5.85-4,11.24-9.43,17.7-11.45,8.86-2.76,16.12-8.06,24.31-11.74,2-.88,4.61-.19,6.92-.38,4.85-.41,9.7-.92,16.15-1.54-6,5.1-10.85,9.65-16.13,13.54-13.25,9.77-26.61,19.4-40.18,28.72-3.45,2.37-7.85,3.37-11.8,5-1.2.5-2.4,1-3.56,1.64-1.75.92-3.43,2-5.22,2.85-5,2.38-10.23,2.94-14.56-.66s-5.25-9.07-4.79-14.78c1.48-18.8,6.75-36.67,12.83-54.38,3.41-9.94,7.23-19.84,9.43-30.07,2.56-11.89,9.93-21.28,14.62-32,1.18-2.7,4.52-4.45,6.85-6.65,1.3-1.23,2.63-2.45,3.86-3.75,2.47-2.6,4.88-5.26,7.73-8.34,1.76,3.1,3.12,5.51,4.59,8.09,5.62-1.46,11.43-3.88,17.38-4.31,11.86-.87,23.68-3.91,35.81-.52,3.47,1,7.89-1.55,11.9-2.38,2.56-.53,5.21-.71,7.72-1.4,2.76-.77,5.4-2,8.13-2.91,1.47-.49,3.11-1.21,4.53-1,6.8,1.08,13.11.74,19.4-2.86,2.69-1.54,6.69-.85,10.1-1.09,9.17-.66,18.32-1.49,27.5-1.83,7.28-.26,14.59.11,21.89.2l.29,1.61-1.89,2.46,6.89,1.34c-.33,1.26-.65,2.51-1,3.76l1,.57L450.09,285c0,1.94-.07,3.11,0,4.26a6.41,6.41,0,0,0,.59,2.72c3.62,5.79,1.59,11.4.14,17.33-2.23,9.07-3.93,18.3-5.29,27.54q-2.6,17.6-4.2,35.32c-.54,5.9-.09,11.9-.09,18.89,1-2.39,2.2-4,2.34-5.76.93-11.27,7.52-20.54,10.72-31,1.64-5.32,3.49-10.57,5.37-15.81a19.66,19.66,0,0,1,2.22-3.79c2.35-3.58,5.23-6.92,7-10.77,2.11-4.66,4.12-6.31,10.11-5.06-1.57,11.31-3.19,22.69-4.71,34.09a45.39,45.39,0,0,0-.08,5.35c0,4.62-.54,9.28-.08,13.85a83.42,83.42,0,0,1-2.52,30.94l2,.5c2.7-6.53,5.46-13,8.07-19.59,1.46-3.66,2.22-7.65,4.07-11.08,4.25-7.83,9.16-15.3,13.38-23.15,1.26-2.35.5-5.75,1.69-8.17,3.88-7.85,8.06-15.56,12.44-23.14,8.23-14.23,16.56-28.41,25.11-42.45,2.64-4.33,6.16-8.13,9.27-12.17Z" transform="translate(-127.45 -19.31)"/><path d="M574.53,121.59q-17.28,5.28-34.56,10.54c-3.16,1-6.31,2.4-9.53,2.62s-6.44-.82-11.34-1.56c2.23-1.52,3.51-2.39,5.41-3.7l-4.73-.65c9.78-11.52,23.72-14.93,37.22-19.25,1.65-.52,3.09-1.67,4.71-2.28,4.08-1.55,8.12-3.38,12.34-4.35,13.81-3.18,27.66-6.28,41.59-8.86,4.74-.88,9.78-.14,15.05-.14l-1.63,2.87,1.5,1a10.66,10.66,0,0,1-2.23,2.35c-7.36,4-10.55,11.48-15.19,17.72-5.68,7.62-11.1,15.44-16.6,23.2-7.6,10.75-14.65,22-22.9,32.18-7.84,9.71-16.92,18.43-26,28.18-.5-2.39-.78-3.72-1.17-5.55l-6.81,5.76c3.31-19,17.34-31.23,25-47.53L533,169.62l5.81,3c-1.17.67-2.2,1.26-3.4,1.93l3.56,1.38-5.49,2.64c.76,1.57,1.55,3.17,2.84,5.81-4.4-.22-8.4-1.17-12.09-.46-11,2.12-21.28-2.6-32-2.78-8.36-.13-16.7-1.22-24.65-1.85-.38,1.18-.48,2.52-.91,2.64a58.61,58.61,0,0,1-6.35,1.15c-11.71,1.77-23.39,4.65-35.15,5-11.94.36-22.85,4.38-34.28,6.42a12.36,12.36,0,0,1-2.27,0c2.88-8.43,5.35-16.79,8.58-24.85,6-15,13-29.55,18.57-44.65,4.75-12.78,8.36-26,12.07-39.13,3.9-13.77,7.08-27.74,11.09-41.48,1.47-5,4.41-9.64,6.65-14.38,7.34.35,8,6.1,10.27,10.82,2.86,5.95-.46,10.72-1.93,15.87-2.18,7.59-4.5,15.14-6.86,22.68-.21.68-1.1,1.14-2.29,1.31a346.14,346.14,0,0,1-26.93,89.94l64.15-9.12c-.16-1.93-1.18-5.08-.53-7.85,3.53-15.19,8.73-29.67,18.48-42.24,4.79-6.18,8.72-13,13.22-19.44,1.46-2.09,3.5-3.76,5.28-5.62,4.16-4.35,8.12-8.91,12.53-13,5.67-5.24,11.61-10.21,17.59-15.1,5.68-4.65,11.36-9.34,17.42-13.44,3.34-2.27,7.43-3.47,11.25-5,5.91-2.33,11.73-5.67,17.87-6.49,11-1.46,22.65-3.4,32,5.18,3.27,3,5.3,7.38,8,11.24-1.5.81-1.82,1.13-2,1.07-5-1.26-9.87-2.75-14.87-3.79a18.11,18.11,0,0,0-7.26,0c-7.7,1.68-15.42,3.4-23,5.66-6.87,2.06-14,4-18.78,10.1a8,8,0,0,1-2.41,1.64A113.31,113.31,0,0,0,531.81,95c-6.77,8.77-14.48,17.11-19.57,26.79-4.92,9.35-7.22,20.12-10.25,30.39-1.36,4.65-.07,5.69,4.66,5.17,14.11-1.55,27.2-5.53,38.84-14.21,6-4.5,13.14-7.5,19.57-11.49,3.71-2.29,7-5.2,10.53-7.83Z" transform="translate(-127.45 -19.31)"/><path d="M334.21,108.83c5.36-6.53,10.5-12.49,15.3-18.71,9.7-12.59,18.82-25.65,29-37.87,7.07-8.52,15.42-16,23.06-23.77,4.89,3.7,5.47,6.74,4.85,11.76-1.44,11.54-6.24,22-8.8,33.13-1.91,8.35-3.69,16.74-5.67,25.08-.64,2.69-1.72,5.27-2.91,8.82l-1.45-3.15a8,8,0,0,0-.6,1.3q-6,25.76-12.1,51.5c-.5,2.08-.88,4.39-2.07,6.08-9.56,13.67-9.71,30.33-14.57,45.47-.86,2.68-1,5.63-2.18,8.14-1.74,3.78-4.31,7.17-6.07,10.94-2,4.28-3.48,8.79-5.19,13.2l-1.45-.34c.28-3.26.57-6.53.9-10.23l-2.37.8c-3-9.11-2.25-18.18-.22-27.34,5.26-23.69,10.35-47.42,15.58-71.12,2.05-9.3,4.29-18.57,6.42-27.85.2-.89.26-1.82.53-3.81-2.49,2.63-4.35,4.43-6,6.39-5.62,6.62-10.56,14-16.94,19.74-5.49,5-7.92,11.57-12.05,17.19-.7,1-.61,2.53-.82,3.83-1.48,9.39-2.94,18.78-4.65,29.75l-3.19-6.29-.48.7c-1.16-.67-3.09-1.12-3.35-2a42.64,42.64,0,0,1-1.9-10.57c-.14-8.33.23-16.67.35-25,0-3.14-.12-6.28,0-9.41.09-2.84.41-5.67.71-9.66-2,3.78-3.68,6.68-5.17,9.66-1.19,2.38-2.28,4.81-3.24,7.29-2,5.24-3.91,10.54-5.92,15.79-1.34,3.48-2.88,6.88-4.2,10.36-1.63,4.29-2.85,8.75-4.76,12.9-3.35,7.27-7.09,14.36-11,22.26-5.91-6.73-8.24-1.47-10.81,3l-.85-.94c1.95-7.27,3.46-14.69,5.93-21.78,5.18-14.86,11.06-29.47,16.22-44.32,2-5.68,2.42-11.87,4.18-17.63,2.07-6.74,4.91-13.23,7.23-19.88,2.81-8.08,5.22-16.31,8.22-24.32a168.59,168.59,0,0,1,8-17.8c1.64-3.19,5.46-5,8.2-2.82s5.52,6.19,5.75,9.57c.63,9.12,0,18.35-.34,27.52-.13,3.21-1.14,6.38-1.52,9.59a17.77,17.77,0,0,0,.17,5.3C332.35,102.08,333.2,104.88,334.21,108.83Zm33.69-3.49,2.46-13.13C364.16,96.6,367.51,101.32,367.9,105.34Z" transform="translate(-127.45 -19.31)"/><path d="M690.43,361.3c.82,8.19,2.43,16.68,2.3,25.14s3.74,15.78,5.44,23.68c2.74,12.64,5.54,25.28,7.77,38,.83,4.77.14,9.81.14,15.54-1-1.68-1.7-2.89-1.83-3.1-2.24-.62-3.92-.64-5-1.45-8.11-5.91-11.74-14.57-14.37-23.86-3.2-11.31-4.49-23.08-9.15-34.1-3.18-7.51-4.44-15.82-6.78-23.7-1.06-3.56-2.68-6.94-4.52-11.59-8.49,28.53-17.19,55.52-29.91,80.92l-1.78-.46a59.8,59.8,0,0,0-.93-6.14c-.58-2.24,1.33-6.16-3.56-5.79,0-1.76-.42-3.59-.06-5.26,3.28-15,6.58-30,10.12-45a186.15,186.15,0,0,1,5.84-20.26c1.23-3.42-.3-4.86-2.65-5.68-5.28-1.84-8.26-5.54-10.24-10.54-.68-1.72-2.26-3.09-4.45-6,3.19.57,5,.77,6.67,1.22,1.9.51,3.71,1.46,5.63,1.84,8.06,1.6,8.58.29,12.22-6.92,4.66-9.23,4.83-20.06,11.36-28.63,2.65-3.47,3.22-8.51,4.69-12.72l13.84,2.59c.11,15.25-5.4,29.06-12.23,43.42,5.32-.54,9.34.8,13.58-3,4.5-4.07,10.93-5.91,15.93-9.54,3.51-2.56,6.36-6.24,8.92-9.84a67.28,67.28,0,0,0,6.14-11.25c6.66-14.87-6.39-24.94-17.72-24.34-5.51.3-11,2-16.37,3.53-5.62,1.59-11.09,3.73-16.63,5.6-9.25,3.11-11,12.27-15.39,18.74a66.58,66.58,0,0,1-6.86-1.92c-1.26-.48-3.24-1.67-3.21-2.47.25-6-.54-12.73,1.89-17.85,2.29-4.81,7.71-8.58,12.49-11.68,9.68-6.29,20.91-8,32.06-9.32.06-.6,0-2.11.26-2.16a16.9,16.9,0,0,1,5.28-.44c6.2.84,12.53,1.3,18.47,3.06,4.46,1.32,8.44,4.34,12.56,6.73,10,5.78,14.19,13.31,13.74,25.22-.23,6.06-.41,12.24-1.78,18.09-1.24,5.29-3.22,10.83-6.4,15.14-5.22,7.07-10.59,14.4-19.7,17.39-2.27.74-4.08,2.75-6.22,4C696.78,358,693.45,359.68,690.43,361.3Z" transform="translate(-127.45 -19.31)"/><path d="M594.12,417.57l1.41-3.6-.59-.28c-1.72,2.59-3.31,5.28-5.2,7.75-6.32,8.25-15.13,13.25-24.06,18.08-7,3.79-13.55-.33-20.07-1.64-15-3-17.58-11.56-19.31-30.46C526,404,527,400.5,527,397c0-3.68-1-7.38-.77-11,.3-5.58.37-11.42,2.09-16.65,4.71-14.32,9-28.92,18.16-41.35,2-2.71,2.64-6.44,4.68-9.12a132.82,132.82,0,0,1,13.46-15.78c10.13-9.7,20.27-19.52,31.34-28.08,6.1-4.71,14.11-6.92,21.24-10.31,2.76-1.32,5.46-2.78,9.39-4.78l-4.36,6.48c4.9-1.4,8.73-6.66,13.51-.71l-8.32,7.43,6.28-2.65.56.84c-3.34,3.19-7.05,6.09-9.86,9.69-1.47,1.9-2,5.07-1.86,7.6,1.28,21.15,2.75,42.31-1.71,63.25a180.74,180.74,0,0,1-6.66,22.23q-5.65,16.1-12.06,31.92c-1.74,4.28-4.46,8.15-6.74,12.21Zm10.46-119.8-2-1.5c-1.3,1.9-3.41,3.68-3.73,5.73-.87,5.67-6.25,7.07-9.17,10.73-2.73,3.43-6.26,6.27-8.71,9.86-5.58,8.15-10.94,16.47-16,25-4.48,7.61-8.69,15.41-12.43,23.41a38.19,38.19,0,0,0-3.5,13.11,235.5,235.5,0,0,0-.22,24.21c0,1.5,1.8,4.12,2.94,4.22,3.7.32,7.91.64,11.12-.82,2.76-1.26,8-1.81,6.84-7.43-.08-.43,1.44-1.16,2.17-1.8,1.42-1.25,3.11-2.32,4.15-3.83,3-4.41,5.44-9.3,8.76-13.46,13.34-16.72,16.85-36.86,19.49-57.07C605.65,318.15,604.58,307.89,604.58,297.77Zm9.6,13h.76l-3.39-19.83-1.58-.08c-.56,1.37-1.9,3-1.56,4.07C610.09,300.27,612.21,305.48,614.18,310.74Z" transform="translate(-127.45 -19.31)"/><path d="M780.84,287.44l5.22-10.6c3.62,15.47-3.89,29.12-6,44.49,5.29-3.26,10.23-5.79,14.59-9.09,8.11-6.14,15.74-12.92,23.85-19.05,4.26-3.21,9.12-5.62,13.89-8.5.26.65.57,1.42.93,2.34l10.52-7.43.87.73c-.5,1.39-1,2.77-1.66,4.54,7.39-4.4,14-10.07,22.75-10l.94,1.59c-7.94,8-16,15.9-23.79,24.08-5.61,5.91-10.52,12.51-16.27,18.27-4.64,4.65-10,8.65-15.18,12.7-9.26,7.2-18.69,14.17-27.93,21.4a5.09,5.09,0,0,0-1.65,4c1.88,12.88,4.05,25.72,6,38.58,1.08,7,1.9,14.08,2.86,21.12,1.14,8.35,2,16.76,3.57,25a35,35,0,0,1-1.17,17.07,2.22,2.22,0,0,0,.16,1.45c2.89,6,1.22,11.9-.83,18.16-.77-1.35-1.38-2.47-2-3.56-1.84-3-3.92-5.95-5.49-9.13-1.28-2.57-1.7-5.56-2.93-8.17-7.66-16.28-9.09-34.15-13.18-51.33-2.22-9.29-3.87-18.7-6.44-28.2-7.28,26.23-14.2,52.5-27.12,76.6l-1.42.08c-.19-2.07-1-4.32-.45-6.17,1.73-5.7-.71-10.25-2.87-15.19-1.4-3.19-2.4-7.15-1.86-10.49,1.5-9.26,3.7-18.42,6-27.52,2.53-10,5.47-19.94,8.23-29.88l-6-1.76c1.47-1.66,2.36-3.38,3.76-4.13,3.87-2.08,5.13-5.55,6.41-9.4,4.91-14.8,10-29.53,15.19-44.23,2.75-7.8,5.77-15.5,9-24.14l2.49,5.29c.83-2,1.64-4,2.94-7.24C778.43,282.91,779.71,285.3,780.84,287.44Z" transform="translate(-127.45 -19.31)"/><path d="M131.78,441.49c2.44-7,1.86-14-.55-20.63L129,424.21l-1.27-.28c1.29-5.74,2.58-11.47,3.93-17.51l-4.16-2.52c3.29-3.69,2.83-7.71,1.54-11.83a3.14,3.14,0,0,1,0-1.82c2.68-8.35,5.32-16.71,8.17-25,3-8.81,6.35-17.51,9.38-26.31,3.18-9.24,5.93-18.64,9.3-27.81a187.13,187.13,0,0,1,9.78-22.77c1.12-2.11,5.26-2.63,7.86-3.81,4.73,5.95,3.24,12.91,1.47,18.21-3.21,9.64-2.12,18.79-.47,28.1,2.05,11.59,4.95,23,7.12,34.6,1.69,9,2.78,18.16,4.23,27.23a140,140,0,0,0,4.29,19.59c2.65-9.29,5.37-18.56,7.9-27.88,2.12-7.82,3.74-15.78,6.08-23.53,4.82-16,9.7-32,15.11-47.87,2.35-6.87,6.11-13.25,9.15-19.89,2-4.47,3.94-9,6.23-14.24l1.74,2.76,8.19-16.12,1,.39.6,4.19c2.7-.35,5.57,3.34,5.69,7.25a68.2,68.2,0,0,1-5.11,27.76c-5.61,14.06-11.55,28-16.82,42.18-4.44,12-8,24.21-12.19,36.26-2,5.92-4.82,11.6-6.77,17.56s-3.32,12.34-5,18.51c-.81,2.95-1.81,5.86-3,9.6l-1.81-3.63c-5,12.91-9.74,25.42-14.54,37.93l-1.5-.42v-5.74l-3.16,3.32c-3.73-7.36,1.28-13.82,1.29-18.94-2-2.22-3.75-3.29-4.14-4.73-1.27-4.71-2-9.55-3-14.33-.86-4-2.1-7.93-2.69-12-.47-3.29-.14-6.68-.33-10a21.12,21.12,0,0,0-1.61-7.43l-.69,3.19-1.66.26c-2.48-12.8-4.95-25.6-7.51-38.86a46,46,0,0,0-1.92,4.85,85.17,85.17,0,0,0-2.88,11.66c-1.45,11.17-6.13,21.17-10.29,31.44-4.42,10.9-8,22.13-12,33.2a17.92,17.92,0,0,1-1.38,2.54Z" transform="translate(-127.45 -19.31)"/><path d="M691,27.32c-.07,1-.14,2-.15,2.06l10-10.07,1.12.43c-3.38,17.31-7.83,34.5-9.84,52s-1.63,35.37-2.3,53.33c5.47.61,10.43-6.38,16.42-2.24l16.29,1.82c.07.53.15,1.06.23,1.59a12.76,12.76,0,0,1-2.8,2.25c-5.42,2.23-11.63,3.32-16.13,6.71-3.86,2.91-7.9,4.64-12.08,6.56-.71.32-1.25,1.92-1.19,2.89.64,9.95,1.3,19.91,2.19,29.85,1.17,13.11,2.62,26.18,3.76,39.29a22.91,22.91,0,0,1-1.22,8.38c-5.53-10.16-18.18-16-17.28-29.74-.16,1.39-.32,2.79-.49,4.19l-1.35.15c-6.42-14.73-5.85-30.67-6.77-47.15-7.23,3.53-13.89,7.46-21,10.09-9.72,3.58-13.39,11.62-17.41,20-4.45,9.26-9.69,18.14-14.58,27.18l-1.76-.65V199c-3.82-1.06-3.91-4-3.7-7.4.12-1.87,3.37-4.79-1.26-5.84a9.31,9.31,0,0,1,.43-3.75c3.18-7.9,6-16,9.88-23.56,5.43-10.74,11.68-21.06,17.4-31.66.92-1.72.66-4,1.43-5.9,1.32-3.15,3-6.17,4.57-9.18,7-13.17,13.9-26.41,21.16-39.44,2.53-4.54,5.35-9.29,9.17-12.68,6.39-5.68,7.51-13.6,10.69-20.67,1.81-4,3.69-8,5.54-12ZM671.13,100c-6.93,13.39-13.59,26.29-20.77,40.17,6.18-2.3,11.45-4,16.51-6.27a5.76,5.76,0,0,0,3-4C670.47,120.18,670.72,110.47,671.13,100Z" transform="translate(-127.45 -19.31)"/></svg>